<?xml version="1.0" encoding="UTF-8"?>
<svg id="Layer_1" data-name="Layer 1" xmlns="http://www.w3.org/2000/svg" xmlns:xlink="http://www.w3.org/1999/xlink" version="1.1" viewBox="0 0 225.73 197.82">
  <defs>
    <style>
      .cls-1 {
        clip-path: url(#clippath);
      }

      .cls-2 {
        fill: none;
      }

      .cls-2, .cls-3, .cls-4 {
        stroke-width: 0px;
      }

      .cls-3 {
        fill: #3ec0c5;
      }

      .cls-4 {
        fill: #29398c;
      }
    </style>
    <clipPath id="clippath">
      <rect class="cls-2" x="1.01" y="1.37" width="222.98" height="194.43"/>
    </clipPath>
  </defs>
  <path class="cls-4" d="M29.35,146.15l-3.71.56c0-1.29-.65-2.83-2.42-2.83-1.66,0-2.93,1.47-2.93,3.82,0,2.72,1.66,3.82,3.41,3.82s2.93-1.29,3.36-1.9l2.37,2.5c-.82,1.14-2.65,2.87-5.85,2.87-4.44,0-7.38-2.83-7.38-7.29s2.91-7.29,6.94-7.29c4.53,0,6.19,3.06,6.19,5.74"/>
  <rect class="cls-4" x="31.03" y="140.58" width="3.93" height="14.24"/>
  <path class="cls-4" d="M41.12,139.7l-2.7.11,1.94-3.21h3.97l1.94,3.21-2.7-.11-1.23-1.08-1.23,1.08ZM41.38,143.86v2.33h5v3.04h-5v2.31h5.95v3.28h-9.99v-14.24h9.99v3.28h-5.95Z"/>
  <g>
    <path class="cls-4" d="M62.3,154.82h-3.6l-3.65-5.05c-.58-.82-1.23-1.79-1.77-2.65l-.15.06c.11.45.11,1.42.11,2.59v5.05h-3.86v-14.24h3.19l4.08,5.59c.6.84,1.49,2.29,1.77,2.8l.13-.06c-.11-.45-.11-1.57-.11-2.74v-5.59h3.86v14.24Z"/>
    <path class="cls-4" d="M77.25,146.15l-3.71.56c0-1.29-.65-2.83-2.42-2.83-1.66,0-2.93,1.47-2.93,3.82,0,2.72,1.66,3.82,3.41,3.82s2.93-1.29,3.36-1.9l2.37,2.5c-.82,1.14-2.65,2.87-5.85,2.87-4.44,0-7.38-2.83-7.38-7.29s2.91-7.29,6.95-7.29c4.53,0,6.19,3.06,6.19,5.74"/>
  </g>
  <rect class="cls-4" x="78.93" y="140.58" width="3.93" height="14.24"/>
  <g>
    <path class="cls-4" d="M92.32,149.32l-.95-3.43c-.13-.47-.32-1.23-.39-1.73h-.09c-.06.5-.28,1.25-.41,1.75l-.95,3.41h2.78ZM93.12,152.21h-4.38l-.73,2.61h-4.12l4.79-14.24h4.49l4.75,14.24h-4.08l-.71-2.61Z"/>
    <path class="cls-4" d="M25.71,177.47h7.84v4.01h-17.18v-3.34c5.48-4.15,11.67-7.55,11.67-12.19,0-2.14-1.34-3.58-3.55-3.58-2,0-3.34,1.12-3.34,2.85,0,.32.03.63.11.81l-4.78.88c-.11-.28-.28-.84-.28-1.9,0-4.11,3.34-6.96,8.43-6.96s8.47,3.13,8.47,7.77-3.9,8.12-7.63,10.65c-.46.35-1.37.84-1.62.95l.07.14c.21-.03.91-.07,1.79-.07"/>
    <path class="cls-4" d="M51.33,170.02c0-4.92-1.93-7.66-5.06-7.66s-4.95,2.74-4.95,7.66,1.86,7.38,4.95,7.38,5.06-2.53,5.06-7.38M36.36,170.02c0-7.38,3.51-11.98,9.91-11.98s10.02,4.6,10.02,11.98-3.55,11.7-10.02,11.7-9.91-4.39-9.91-11.7"/>
    <path class="cls-4" d="M68.58,177.47h7.84v4.01h-17.18v-3.34c5.48-4.15,11.67-7.55,11.67-12.19,0-2.14-1.34-3.58-3.55-3.58-2,0-3.34,1.12-3.34,2.85,0,.32.03.63.11.81l-4.78.88c-.11-.28-.28-.84-.28-1.9,0-4.11,3.34-6.96,8.43-6.96s8.47,3.13,8.47,7.77-3.9,8.12-7.63,10.65c-.46.35-1.37.84-1.62.95l.07.14c.21-.03.91-.07,1.79-.07"/>
    <path class="cls-4" d="M90.4,164.96c0-.74,0-1.86.07-2.14l-.14-.07c-.11.25-.81,1.33-1.23,1.93l-4.43,5.97c-.42.56-1.12,1.62-1.41,1.86l.11.11c.35-.03,1.3-.03,1.97-.03h5.06v-7.63ZM95,172.58h3.3v3.94h-3.27v4.95h-4.88v-4.95h-11.67v-3.94l10.26-14.3h6.26v14.3Z"/>
  </g>
  <polygon class="cls-4" points="16.18 191.11 16.18 195.47 19.08 195.47 19.08 194.76 16.99 194.76 16.99 193.59 18.88 193.59 18.88 192.88 16.99 192.88 16.99 191.82 19.04 191.82 19.04 191.11 16.18 191.11"/>
  <polygon class="cls-4" points="22.95 191.37 22.95 194.37 20.59 191.37 19.86 191.37 19.86 195.73 20.67 195.73 20.67 192.73 23.03 195.73 23.76 195.73 23.76 191.37 22.95 191.37"/>
  <g>
    <path class="cls-4" d="M28.16,194.57l.54.49s-.62.74-1.81.74c-1.36,0-2.39-.97-2.39-2.26s1.03-2.26,2.39-2.26c1.13,0,1.75.69,1.75.69l-.55.49s-.42-.48-1.2-.48c-.93,0-1.57.72-1.57,1.56s.64,1.56,1.57,1.56c.83,0,1.27-.54,1.27-.54"/>
    <path class="cls-4" d="M33,193.55c0-.84-.61-1.55-1.56-1.55s-1.56.7-1.56,1.55.61,1.55,1.56,1.55,1.56-.7,1.56-1.55M33.82,193.55c0,1.29-1.01,2.26-2.39,2.26s-2.39-.97-2.39-2.26,1.01-2.26,2.39-2.26,2.39.97,2.39,2.26"/>
  </g>
  <polygon class="cls-4" points="37.64 191.37 37.64 194.37 35.28 191.37 34.55 191.37 34.55 195.73 35.36 195.73 35.36 192.73 37.72 195.73 38.44 195.73 38.44 191.37 37.64 191.37"/>
  <polygon class="cls-4" points="39.04 191.37 39.04 192.08 40.34 192.08 40.34 195.73 41.15 195.73 41.15 192.08 42.45 192.08 42.45 191.37 39.04 191.37"/>
  <g>
    <path class="cls-4" d="M45.34,192.73c0-.43-.32-.65-.84-.65h-.64v1.3h.64c.52,0,.84-.22.84-.65M43.04,191.37h1.55c.94,0,1.56.56,1.56,1.36,0,.66-.38,1.15-1.05,1.31l1.18,1.69h-.94l-1.12-1.64h-.37v1.64h-.81v-4.36Z"/>
    <path class="cls-4" d="M50.65,193.55c0-.84-.61-1.55-1.56-1.55s-1.56.7-1.56,1.55.61,1.55,1.56,1.55,1.56-.7,1.56-1.55M51.48,193.55c0,1.29-1.01,2.26-2.39,2.26s-2.39-.97-2.39-2.26,1.01-2.26,2.39-2.26,2.39.97,2.39,2.26"/>
    <path class="cls-4" d="M57.59,194.57l.54.49s-.62.74-1.81.74c-1.36,0-2.39-.97-2.39-2.26s1.03-2.26,2.39-2.26c1.13,0,1.75.69,1.75.69l-.55.49s-.42-.48-1.2-.48c-.93,0-1.57.72-1.57,1.56s.64,1.56,1.57,1.56c.83,0,1.27-.54,1.27-.54"/>
    <path class="cls-4" d="M62.43,193.55c0-.84-.61-1.55-1.56-1.55s-1.56.7-1.56,1.55.61,1.55,1.56,1.55,1.56-.7,1.56-1.55M63.25,193.55c0,1.29-1.01,2.26-2.39,2.26s-2.39-.97-2.39-2.26,1.01-2.26,2.39-2.26,2.39.97,2.39,2.26"/>
  </g>
  <polygon class="cls-4" points="67.8 191.37 66.26 193.56 64.73 191.37 63.98 191.37 63.98 195.73 64.79 195.73 64.79 192.8 66.26 194.88 67.74 192.8 67.74 195.73 68.55 195.73 68.55 191.37 67.8 191.37"/>
  <path class="cls-4" d="M73.32,192.31l.71,1.7h-1.42l.71-1.7ZM72.9,191.37l-1.83,4.36h.81l.43-1.03h2l.43,1.03h.82l-1.83-4.36h-.82Z"/>
  <path class="cls-4" d="M81.48,194.57l.54.49s-.62.74-1.81.74c-1.36,0-2.39-.97-2.39-2.26s1.03-2.26,2.39-2.26c1.13,0,1.75.69,1.75.69l-.55.49s-.42-.48-1.2-.48c-.93,0-1.57.72-1.57,1.56s.64,1.56,1.57,1.56c.83,0,1.27-.54,1.27-.54"/>
  <rect class="cls-4" x="82.73" y="191.37" width=".81" height="4.36"/>
  <path class="cls-4" d="M84.64,191.37v4.36h2.9v-.71h-2.09v-1.17h1.89v-.71h-1.89v-1.06h2.05v-.71h-2.86ZM84.8,190.6l.43.51.82-.57.81.57.44-.51-1.25-.84-1.25.84Z"/>
  <polygon class="cls-4" points="91.4 191.37 91.4 194.37 89.05 191.37 88.32 191.37 88.32 195.73 89.13 195.73 89.13 192.73 91.49 195.73 92.21 195.73 92.21 191.37 91.4 191.37"/>
  <path class="cls-4" d="M96.61,194.57l.54.49s-.62.74-1.81.74c-1.36,0-2.39-.97-2.39-2.26s1.03-2.26,2.39-2.26c1.13,0,1.75.69,1.75.69l-.55.49s-.42-.48-1.2-.48c-.93,0-1.57.72-1.57,1.56s.64,1.56,1.57,1.56c.83,0,1.27-.54,1.27-.54"/>
  <rect class="cls-4" x="97.86" y="191.37" width=".81" height="4.36"/>
  <path class="cls-4" d="M101.55,192.31l.71,1.7h-1.42l.71-1.7ZM101.14,191.37l-1.83,4.36h.82l.43-1.03h2l.43,1.03h.82l-1.83-4.36h-.82Z"/>
  <polygon class="cls-4" points="106.32 191.37 106.32 195.73 109.22 195.73 109.22 195.02 107.13 195.02 107.13 193.85 109.02 193.85 109.02 193.14 107.13 193.14 107.13 192.08 109.18 192.08 109.18 191.37 106.32 191.37"/>
  <path class="cls-4" d="M113.77,192.31l.71,1.7h-1.42l.71-1.7ZM113.36,191.37l-1.83,4.36h.81l.43-1.03h2l.43,1.03h.82l-1.83-4.36h-.82Z"/>
  <polygon class="cls-4" points="118.13 191.37 118.13 192.08 119.43 192.08 119.43 195.73 120.24 195.73 120.24 192.08 121.54 192.08 121.54 191.37 118.13 191.37"/>
  <polygon class="cls-4" points="122.14 191.37 122.14 195.73 125.03 195.73 125.03 195.02 122.94 195.02 122.94 193.85 124.83 193.85 124.83 193.14 122.94 193.14 122.94 192.08 124.99 192.08 124.99 191.37 122.14 191.37"/>
  <path class="cls-4" d="M129.22,194.57l.54.49s-.62.74-1.81.74c-1.36,0-2.39-.97-2.39-2.26s1.03-2.26,2.39-2.26c1.13,0,1.75.69,1.75.69l-.55.49s-.42-.48-1.2-.48c-.93,0-1.57.72-1.57,1.56s.64,1.56,1.57,1.56c.83,0,1.27-.54,1.27-.54"/>
  <polygon class="cls-4" points="133.46 191.37 133.46 194.37 131.1 191.37 130.38 191.37 130.38 195.73 131.18 195.73 131.18 192.73 133.54 195.73 134.27 195.73 134.27 191.37 133.46 191.37"/>
  <path class="cls-4" d="M138.95,193.55c0-.84-.61-1.55-1.56-1.55s-1.56.7-1.56,1.55.61,1.55,1.56,1.55,1.56-.7,1.56-1.55M139.77,193.55c0,1.29-1.01,2.26-2.39,2.26s-2.39-.97-2.39-2.26,1.01-2.26,2.39-2.26,2.39.97,2.39,2.26"/>
  <polygon class="cls-4" points="140.5 191.37 140.5 195.73 143.32 195.73 143.32 195.02 141.31 195.02 141.31 191.37 140.5 191.37"/>
  <g>
    <path class="cls-4" d="M147.55,193.55c0-.84-.61-1.55-1.56-1.55s-1.56.7-1.56,1.55.61,1.55,1.56,1.55,1.56-.7,1.56-1.55M148.38,193.55c0,1.29-1.01,2.26-2.39,2.26s-2.39-.97-2.39-2.26,1.01-2.26,2.39-2.26,2.39.97,2.39,2.26"/>
    <path class="cls-4" d="M152.27,194.89v-.92h-1.07v-.7h1.87v1.98s-.6.55-1.75.55c-1.38,0-2.48-.97-2.48-2.26s1.07-2.26,2.45-2.26c1.16,0,1.75.66,1.75.66l-.55.5s-.39-.45-1.19-.45c-.95,0-1.62.72-1.62,1.56s.71,1.56,1.66,1.56c.67,0,.95-.21.95-.21"/>
  </g>
  <rect class="cls-4" x="154.01" y="191.37" width=".81" height="4.36"/>
  <path class="cls-4" d="M157.69,192.31l.71,1.7h-1.42l.71-1.7ZM157.28,191.37l-1.83,4.36h.82l.43-1.03h2l.43,1.03h.81l-1.83-4.36h-.82Z"/>
  <polygon class="cls-4" points="162.46 191.37 162.46 195.73 165.36 195.73 165.36 195.02 163.27 195.02 163.27 193.85 165.16 193.85 165.16 193.14 163.27 193.14 163.27 192.08 165.32 192.08 165.32 191.37 162.46 191.37"/>
  <polygon class="cls-4" points="169.97 191.37 168.43 193.56 166.89 191.37 166.14 191.37 166.14 195.73 166.95 195.73 166.95 192.8 168.43 194.88 169.9 192.8 169.9 195.73 170.71 195.73 170.71 191.37 169.97 191.37"/>
  <g>
    <path class="cls-4" d="M176.04,192.76c0-.41-.29-.68-.84-.68h-.69v1.37h.69c.55,0,.84-.27.84-.69M173.69,191.37h1.6c.94,0,1.56.6,1.56,1.4s-.63,1.4-1.56,1.4h-.8v1.57h-.81v-4.36Z"/>
    <path class="cls-4" d="M181.19,193.55c0-.84-.61-1.55-1.56-1.55s-1.56.7-1.56,1.55.61,1.55,1.56,1.55,1.56-.7,1.56-1.55M182.01,193.55c0,1.29-1.01,2.26-2.39,2.26s-2.39-.97-2.39-2.26,1.01-2.26,2.39-2.26,2.39.97,2.39,2.26"/>
    <path class="cls-4" d="M185.03,192.73c0-.43-.32-.65-.84-.65h-.64v1.3h.64c.52,0,.84-.22.84-.65M182.74,191.37h1.55c.94,0,1.56.56,1.56,1.36,0,.66-.38,1.15-1.05,1.31l1.18,1.69h-.94l-1.12-1.64h-.37v1.64h-.81v-4.36Z"/>
  </g>
  <polygon class="cls-4" points="186.27 191.37 186.27 192.08 187.57 192.08 187.57 195.73 188.38 195.73 188.38 192.08 189.68 192.08 189.68 191.37 186.27 191.37"/>
  <g>
    <path class="cls-4" d="M193.1,191.37h.81v2.78c0,.96-.71,1.66-1.82,1.66s-1.82-.7-1.82-1.66v-2.78h.81v2.68c0,.62.34,1.04,1.01,1.04s1.01-.42,1.01-1.04v-2.68Z"/>
    <path class="cls-4" d="M198.07,194.89v-.92h-1.07v-.7h1.87v1.98s-.6.55-1.75.55c-1.38,0-2.48-.97-2.48-2.26s1.07-2.26,2.45-2.26c1.16,0,1.75.66,1.75.66l-.55.5s-.39-.45-1.19-.45c-.95,0-1.62.72-1.62,1.56s.71,1.56,1.66,1.56c.67,0,.95-.21.95-.21"/>
  </g>
  <path class="cls-4" d="M201.51,192.31l.71,1.7h-1.42l.71-1.7ZM201.09,191.37l-1.83,4.36h.81l.43-1.03h2l.43,1.03h.82l-1.83-4.36h-.82Z"/>
  <polygon class="cls-4" points="204.29 191.37 204.29 195.73 207.11 195.73 207.11 195.02 205.1 195.02 205.1 191.37 204.29 191.37"/>
  <g class="cls-1">
    <path class="cls-3" d="M198.64,115.29c-2.98,0-5.61,1.54-7.11,3.86h-64.19c-1.51-2.32-4.13-3.86-7.11-3.86-4.68,0-8.47,3.77-8.47,8.43s3.79,8.43,8.47,8.43c2.98,0,5.61-1.54,7.11-3.86h64.19c1.51,2.32,4.13,3.86,7.11,3.86,4.68,0,8.47-3.77,8.47-8.43s-3.79-8.43-8.47-8.43"/>
    <path class="cls-3" d="M173.96,134.27c-2.98,0-5.61,1.54-7.11,3.86h-15.45c-1.51-2.32-4.13-3.86-7.11-3.86-4.68,0-8.47,3.77-8.47,8.43s3.79,8.43,8.47,8.43c2.98,0,5.61-1.54,7.11-3.86h15.45c1.51,2.32,4.13,3.86,7.11,3.86,4.68,0,8.47-3.77,8.47-8.43s-3.79-8.43-8.47-8.43"/>
    <path class="cls-3" d="M59.99,18.22c2.98,0,5.61-1.54,7.11-3.86h47.1c1.51,2.32,4.13,3.86,7.11,3.86s5.61-1.54,7.11-3.86h33.18c1.51,2.32,4.13,3.86,7.11,3.86,4.67,0,8.46-3.77,8.46-8.43s-3.79-8.43-8.46-8.43c-2.99,0-5.61,1.54-7.11,3.86h-33.18c-1.51-2.32-4.13-3.86-7.11-3.86s-5.61,1.54-7.11,3.86h-47.1c-1.51-2.32-4.13-3.86-7.11-3.86-4.68,0-8.47,3.77-8.47,8.43s3.79,8.43,8.47,8.43"/>
    <path class="cls-3" d="M41.64,37.21c2.98,0,5.61-1.54,7.11-3.86h34.12c1.51,2.32,4.13,3.86,7.11,3.86s5.61-1.54,7.11-3.86h78.23c1.51,2.32,4.13,3.86,7.11,3.86,4.67,0,8.47-3.77,8.47-8.43s-3.79-8.43-8.47-8.43c-2.98,0-5.61,1.54-7.11,3.86h-78.23c-1.51-2.32-4.13-3.86-7.11-3.86s-5.61,1.54-7.11,3.86h-34.12c-1.51-2.32-4.13-3.86-7.11-3.86-4.68,0-8.47,3.77-8.47,8.43s3.79,8.43,8.47,8.43"/>
    <path class="cls-3" d="M28.35,56.2c2.98,0,5.61-1.54,7.11-3.86h66.52c1.51,2.32,4.13,3.86,7.11,3.86s5.61-1.54,7.11-3.86h22.37c1.51,2.32,4.13,3.86,7.11,3.86s5.61-1.54,7.11-3.86h35.51c1.51,2.32,4.13,3.86,7.11,3.86,4.68,0,8.47-3.77,8.47-8.43s-3.79-8.43-8.47-8.43c-2.98,0-5.61,1.54-7.11,3.86h-35.51c-1.51-2.32-4.13-3.86-7.11-3.86s-5.61,1.54-7.11,3.86h-22.37c-1.51-2.32-4.13-3.86-7.11-3.86s-5.61,1.54-7.11,3.86H35.47c-1.51-2.32-4.13-3.86-7.11-3.86-4.68,0-8.47,3.77-8.47,8.43s3.79,8.43,8.47,8.43"/>
    <path class="cls-3" d="M215.52,77.32c-2.98,0-5.61,1.54-7.11,3.86h-51.53c-1.51-2.32-4.13-3.86-7.11-3.86s-5.61,1.54-7.11,3.86h-29.47c-1.51-2.32-4.13-3.86-7.11-3.86s-5.61,1.54-7.11,3.86h-47.47c-1.51-2.32-4.13-3.86-7.11-3.86-4.68,0-8.47,3.77-8.47,8.43s3.79,8.43,8.47,8.43c2.98,0,5.61-1.54,7.11-3.86h47.47c1.51,2.32,4.13,3.86,7.11,3.86s5.61-1.54,7.11-3.86h29.47c1.51,2.32,4.13,3.86,7.11,3.86s5.61-1.54,7.11-3.86h51.53c1.51,2.32,4.13,3.86,7.11,3.86,4.68,0,8.47-3.77,8.47-8.43s-3.79-8.43-8.47-8.43"/>
    <path class="cls-3" d="M206.36,96.3c-2.98,0-5.61,1.54-7.11,3.86h-19.28c-1.51-2.32-4.13-3.86-7.11-3.86s-5.61,1.54-7.11,3.86h-27.82c-1.51-2.32-4.13-3.86-7.11-3.86s-5.61,1.54-7.11,3.86h-25.5c-1.51-2.32-4.13-3.86-7.11-3.86-4.67,0-8.47,3.77-8.47,8.43s3.79,8.43,8.47,8.43c2.98,0,5.61-1.54,7.11-3.86h25.5c1.51,2.32,4.13,3.86,7.11,3.86s5.61-1.54,7.11-3.86h27.82c1.51,2.32,4.13,3.86,7.11,3.86s5.61-1.54,7.11-3.86h19.28c1.51,2.32,4.13,3.86,7.11,3.86,4.68,0,8.47-3.77,8.47-8.43s-3.79-8.43-8.47-8.43"/>
    <path class="cls-3" d="M33.57,71.32h22.1c1.51,2.32,4.13,3.86,7.11,3.86s5.61-1.54,7.11-3.86h91.16c1.51,2.32,4.13,3.86,7.11,3.86s5.61-1.54,7.11-3.86h23.15c1.51,2.32,4.13,3.86,7.11,3.86,4.68,0,8.47-3.77,8.47-8.43s-3.79-8.43-8.47-8.43c-2.98,0-5.61,1.54-7.11,3.86h-23.15c-1.51-2.32-4.13-3.86-7.11-3.86s-5.61,1.54-7.11,3.86h-91.16c-1.51-2.32-4.13-3.86-7.11-3.86s-5.61,1.54-7.11,3.86H16.59c-1.51-2.32-4.13-3.86-7.11-3.86-4.67,0-8.46,3.77-8.46,8.43s3.79,8.43,8.46,8.43c2.99,0,5.61-1.54,7.11-3.86h16.98Z"/>
  </g>
</svg>