<?xml version="1.0" encoding="UTF-8"?>
<svg id="Layer_1" data-name="Layer 1" xmlns="http://www.w3.org/2000/svg" version="1.1" viewBox="0 0 214.44 203.33">
  <defs>
    <style>
      .cls-1 {
        fill: #231f20;
        stroke-width: 0px;
      }
    </style>
  </defs>
  <path class="cls-1" d="M47.56,141.7l-3.28.5c0-1.14-.57-2.5-2.13-2.5-1.47,0-2.59,1.3-2.59,3.37,0,2.4,1.47,3.37,3.01,3.37s2.59-1.14,2.97-1.68l2.09,2.21c-.72,1.01-2.34,2.53-5.16,2.53-3.92,0-6.51-2.49-6.51-6.44s2.57-6.44,6.13-6.44c4,0,5.47,2.7,5.47,5.07"/>
  <rect class="cls-1" x="49.04" y="136.79" width="3.47" height="12.57"/>
  <path class="cls-1" d="M57.97,136.01l-2.38.1,1.72-2.84h3.5l1.71,2.84-2.38-.1-1.09-.95-1.09.95ZM58.2,139.68v2.06h4.42v2.69h-4.42v2.04h5.26v2.9h-8.82v-12.57h8.82v2.89h-5.26Z"/>
  <rect class="cls-1" x="91.35" y="136.79" width="3.47" height="12.57"/>
  <path class="cls-1" d="M76.66,149.36h-3.18l-3.22-4.46c-.51-.72-1.09-1.58-1.56-2.34l-.13.06c.09.4.09,1.26.09,2.29v4.46h-3.41v-12.57h2.82l3.6,4.93c.53.74,1.31,2.02,1.56,2.48l.11-.06c-.1-.4-.1-1.39-.1-2.42v-4.93h3.41v12.57Z"/>
  <path class="cls-1" d="M89.86,141.7l-3.28.5c0-1.14-.57-2.5-2.13-2.5-1.47,0-2.59,1.3-2.59,3.37,0,2.4,1.47,3.37,3.01,3.37s2.59-1.14,2.97-1.68l2.1,2.21c-.72,1.01-2.34,2.53-5.16,2.53-3.92,0-6.51-2.49-6.51-6.44s2.57-6.44,6.13-6.44c4,0,5.47,2.7,5.47,5.07"/>
  <path class="cls-1" d="M103.2,144.5l-.84-3.03c-.11-.42-.29-1.09-.34-1.52h-.08c-.06.44-.25,1.1-.36,1.54l-.84,3.01h2.46ZM103.9,147.06h-3.87l-.65,2.31h-3.64l4.23-12.57h3.96l4.19,12.57h-3.6l-.63-2.31Z"/>
  <path class="cls-1" d="M44.36,169.36h6.92v3.54h-15.18v-2.95c4.84-3.66,10.3-6.67,10.3-10.77,0-1.89-1.18-3.17-3.14-3.17-1.77,0-2.95.99-2.95,2.51,0,.28.03.56.09.71l-4.22.78c-.09-.25-.25-.75-.25-1.68,0-3.63,2.95-6.15,7.45-6.15s7.48,2.76,7.48,6.86-3.44,7.17-6.73,9.4c-.4.31-1.21.75-1.43.84l.06.12c.19-.03.81-.06,1.58-.06"/>
  <path class="cls-1" d="M66.99,162.78c0-4.34-1.71-6.77-4.47-6.77s-4.38,2.42-4.38,6.77,1.64,6.52,4.38,6.52,4.47-2.23,4.47-6.52M53.77,162.78c0-6.52,3.1-10.58,8.75-10.58s8.84,4.07,8.84,10.58-3.13,10.33-8.84,10.33-8.75-3.88-8.75-10.33"/>
  <path class="cls-1" d="M82.22,169.36h6.92v3.54h-15.18v-2.95c4.84-3.66,10.3-6.67,10.3-10.77,0-1.89-1.18-3.17-3.14-3.17-1.77,0-2.95.99-2.95,2.51,0,.28.03.56.09.71l-4.22.78c-.09-.25-.25-.75-.25-1.68,0-3.63,2.95-6.15,7.45-6.15s7.48,2.76,7.48,6.86-3.44,7.17-6.73,9.4c-.4.31-1.21.75-1.43.84l.06.12c.19-.03.81-.06,1.58-.06"/>
  <path class="cls-1" d="M101.5,158.32c0-.65,0-1.65.06-1.89l-.12-.06c-.09.22-.71,1.18-1.09,1.71l-3.91,5.28c-.37.5-.99,1.43-1.24,1.65l.09.09c.31-.03,1.15-.03,1.74-.03h4.47v-6.73ZM105.56,165.05h2.92v3.48h-2.89v4.38h-4.31v-4.38h-10.3v-3.48l9.06-12.63h5.52v12.63Z"/>
  <polygon class="cls-1" points="36.41 184.84 38.37 184.84 38.37 185.64 36.41 185.64 36.41 186.96 38.58 186.96 38.58 187.76 35.56 187.76 35.56 182.84 38.54 182.84 38.54 183.64 36.41 183.64 36.41 184.84"/>
  <polygon class="cls-1" points="41.04 182.84 43.5 186.23 43.5 182.84 44.34 182.84 44.34 187.76 43.59 187.76 41.13 184.38 41.13 187.76 40.28 187.76 40.28 182.84 41.04 182.84"/>
  <path class="cls-1" d="M48.93,186.45l.56.56s-.65.84-1.89.84c-1.42,0-2.49-1.09-2.49-2.54s1.08-2.54,2.49-2.54c1.18,0,1.82.77,1.82.77l-.57.55s-.44-.54-1.25-.54c-.97,0-1.64.81-1.64,1.76s.67,1.76,1.64,1.76c.86,0,1.33-.6,1.33-.6"/>
  <path class="cls-1" d="M53.97,185.3c0-.95-.64-1.74-1.63-1.74s-1.63.79-1.63,1.74.64,1.74,1.63,1.74,1.63-.79,1.63-1.74M54.83,185.3c0,1.45-1.05,2.54-2.49,2.54s-2.49-1.09-2.49-2.54,1.05-2.54,2.49-2.54,2.49,1.09,2.49,2.54"/>
  <polygon class="cls-1" points="56.35 182.84 58.81 186.23 58.81 182.84 59.65 182.84 59.65 187.76 58.89 187.76 56.43 184.38 56.43 187.76 55.59 187.76 55.59 182.84 56.35 182.84"/>
  <polygon class="cls-1" points="61.63 183.64 60.27 183.64 60.27 182.84 63.83 182.84 63.83 183.64 62.47 183.64 62.47 187.76 61.63 187.76 61.63 183.64"/>
  <path class="cls-1" d="M66.84,184.37c0-.48-.34-.73-.88-.73h-.67v1.46h.67c.54,0,.88-.25.88-.73M64.45,182.84h1.62c.98,0,1.63.63,1.63,1.53,0,.74-.39,1.3-1.1,1.48l1.23,1.91h-.98l-1.17-1.86h-.39v1.86h-.84v-4.92Z"/>
  <path class="cls-1" d="M72.38,185.3c0-.95-.64-1.74-1.63-1.74s-1.63.79-1.63,1.74.64,1.74,1.63,1.74,1.63-.79,1.63-1.74M73.24,185.3c0,1.45-1.05,2.54-2.49,2.54s-2.49-1.09-2.49-2.54,1.05-2.54,2.49-2.54,2.49,1.09,2.49,2.54"/>
  <path class="cls-1" d="M79.61,186.45l.56.56s-.65.84-1.89.84c-1.42,0-2.5-1.09-2.5-2.54s1.08-2.54,2.5-2.54c1.18,0,1.82.77,1.82.77l-.57.55s-.44-.54-1.25-.54c-.97,0-1.64.81-1.64,1.76s.67,1.76,1.64,1.76c.86,0,1.33-.6,1.33-.6"/>
  <path class="cls-1" d="M84.65,185.3c0-.95-.64-1.74-1.63-1.74s-1.63.79-1.63,1.74.64,1.74,1.63,1.74,1.63-.79,1.63-1.74M85.51,185.3c0,1.45-1.05,2.54-2.49,2.54s-2.49-1.09-2.49-2.54,1.05-2.54,2.49-2.54,2.49,1.09,2.49,2.54"/>
  <polygon class="cls-1" points="87.05 182.84 88.65 185.32 90.25 182.84 91.03 182.84 91.03 187.76 90.19 187.76 90.19 184.46 88.65 186.8 87.11 184.46 87.11 187.76 86.27 187.76 86.27 182.84 87.05 182.84"/>
  <path class="cls-1" d="M95.27,185.82h1.47l-.74-1.92-.74,1.92ZM95.58,182.84h.86l1.91,4.92h-.85l-.45-1.17h-2.08l-.45,1.17h-.85l1.91-4.92Z"/>
  <path class="cls-1" d="M104.52,186.45l.56.56s-.65.84-1.89.84c-1.42,0-2.5-1.09-2.5-2.54s1.08-2.54,2.5-2.54c1.18,0,1.82.77,1.82.77l-.57.55s-.44-.54-1.25-.54c-.97,0-1.64.81-1.64,1.76s.67,1.76,1.64,1.76c.86,0,1.33-.6,1.33-.6"/>
  <rect class="cls-1" x="105.82" y="182.84" width=".84" height="4.92"/>
  <path class="cls-1" d="M109.29,181.03l1.31.94-.46.58-.84-.64-.86.64-.45-.58,1.31-.94ZM108.65,184.84h1.97v.8h-1.97v1.32h2.18v.8h-3.02v-4.92h2.98v.8h-2.14v1.19Z"/>
  <polygon class="cls-1" points="112.4 182.84 114.86 186.23 114.86 182.84 115.71 182.84 115.71 187.76 114.95 187.76 112.49 184.38 112.49 187.76 111.64 187.76 111.64 182.84 112.4 182.84"/>
  <path class="cls-1" d="M120.29,186.45l.56.56s-.65.84-1.89.84c-1.42,0-2.5-1.09-2.5-2.54s1.08-2.54,2.5-2.54c1.18,0,1.82.77,1.82.77l-.57.55s-.44-.54-1.25-.54c-.97,0-1.64.81-1.64,1.76s.67,1.76,1.64,1.76c.86,0,1.33-.6,1.33-.6"/>
  <rect class="cls-1" x="121.6" y="182.84" width=".84" height="4.92"/>
  <path class="cls-1" d="M124.7,185.82h1.47l-.74-1.92-.74,1.92ZM125.01,182.84h.86l1.91,4.92h-.85l-.45-1.17h-2.08l-.45,1.17h-.85l1.91-4.92Z"/>
  <polygon class="cls-1" points="35.56 191.15 35.56 196.07 38.58 196.07 38.58 195.27 36.41 195.27 36.41 193.95 38.37 193.95 38.37 193.14 36.41 193.14 36.41 191.95 38.54 191.95 38.54 191.15 35.56 191.15"/>
  <path class="cls-1" d="M44.21,192.21l.74,1.92h-1.47l.74-1.92ZM43.78,191.15l-1.91,4.92h.85l.45-1.17h2.08l.45,1.17h.85l-1.91-4.92h-.86Z"/>
  <polygon class="cls-1" points="48.76 191.15 48.76 191.95 50.11 191.95 50.11 196.07 50.96 196.07 50.96 191.95 52.31 191.95 52.31 191.15 48.76 191.15"/>
  <polygon class="cls-1" points="52.93 191.15 52.93 196.07 55.96 196.07 55.96 195.27 53.78 195.27 53.78 193.95 55.75 193.95 55.75 193.14 53.78 193.14 53.78 191.95 55.91 191.95 55.91 191.15 52.93 191.15"/>
  <path class="cls-1" d="M60.31,194.76l.56.56s-.65.84-1.89.84c-1.42,0-2.49-1.09-2.49-2.54s1.08-2.54,2.49-2.54c1.18,0,1.82.77,1.82.77l-.57.55s-.44-.54-1.25-.54c-.97,0-1.64.81-1.64,1.76s.67,1.76,1.64,1.76c.86,0,1.33-.6,1.33-.6"/>
  <polygon class="cls-1" points="64.74 191.15 64.74 194.54 62.28 191.15 61.52 191.15 61.52 196.07 62.37 196.07 62.37 192.69 64.83 196.07 65.58 196.07 65.58 191.15 64.74 191.15"/>
  <path class="cls-1" d="M70.46,193.61c0-.95-.64-1.74-1.63-1.74s-1.63.79-1.63,1.74.64,1.74,1.63,1.74,1.63-.79,1.63-1.74M71.32,193.61c0,1.46-1.05,2.54-2.49,2.54s-2.49-1.09-2.49-2.54,1.05-2.54,2.49-2.54,2.49,1.09,2.49,2.54"/>
  <polygon class="cls-1" points="72.08 191.15 72.08 196.07 75.02 196.07 75.02 195.27 72.92 195.27 72.92 191.15 72.08 191.15"/>
  <path class="cls-1" d="M79.43,193.61c0-.95-.64-1.74-1.63-1.74s-1.63.79-1.63,1.74.64,1.74,1.63,1.74,1.63-.79,1.63-1.74M80.29,193.61c0,1.46-1.05,2.54-2.49,2.54s-2.49-1.09-2.49-2.54,1.05-2.54,2.49-2.54,2.49,1.09,2.49,2.54"/>
  <path class="cls-1" d="M84.34,195.13v-1.04h-1.12v-.79h1.95v2.23s-.62.62-1.82.62c-1.44,0-2.59-1.09-2.59-2.54s1.11-2.54,2.55-2.54c1.21,0,1.82.74,1.82.74l-.58.56s-.41-.51-1.24-.51c-.99,0-1.69.81-1.69,1.76s.74,1.76,1.73,1.76c.7,0,.99-.24.99-.24"/>
  <rect class="cls-1" x="86.16" y="191.15" width=".84" height="4.92"/>
  <path class="cls-1" d="M90,192.21l.74,1.92h-1.47l.74-1.92ZM89.57,191.15l-1.91,4.92h.85l.45-1.17h2.08l.45,1.17h.85l-1.91-4.92h-.86Z"/>
  <polygon class="cls-1" points="94.97 191.15 94.97 196.07 97.99 196.07 97.99 195.27 95.81 195.27 95.81 193.95 97.78 193.95 97.78 193.14 95.81 193.14 95.81 191.95 97.95 191.95 97.95 191.15 94.97 191.15"/>
  <polygon class="cls-1" points="102.79 191.15 101.19 193.62 99.59 191.15 98.81 191.15 98.81 196.07 99.65 196.07 99.65 192.76 101.19 195.1 102.73 192.76 102.73 196.07 103.57 196.07 103.57 191.15 102.79 191.15"/>
  <path class="cls-1" d="M109.13,192.72c0-.46-.3-.77-.88-.77h-.72v1.55h.72c.58,0,.88-.31.88-.77M106.68,191.15h1.67c.98,0,1.63.68,1.63,1.57s-.65,1.57-1.63,1.57h-.83v1.77h-.84v-4.92Z"/>
  <path class="cls-1" d="M114.5,193.61c0-.95-.64-1.74-1.63-1.74s-1.63.79-1.63,1.74.64,1.74,1.63,1.74,1.63-.79,1.63-1.74M115.35,193.61c0,1.46-1.05,2.54-2.49,2.54s-2.49-1.09-2.49-2.54,1.05-2.54,2.49-2.54,2.49,1.09,2.49,2.54"/>
  <path class="cls-1" d="M118.5,192.68c0-.48-.34-.73-.88-.73h-.67v1.46h.67c.54,0,.88-.25.88-.73M116.11,191.15h1.62c.98,0,1.63.63,1.63,1.53,0,.74-.39,1.3-1.1,1.48l1.23,1.91h-.98l-1.17-1.86h-.39v1.86h-.84v-4.92Z"/>
  <polygon class="cls-1" points="119.79 191.15 119.79 191.95 121.15 191.95 121.15 196.07 121.99 196.07 121.99 191.95 123.35 191.95 123.35 191.15 119.79 191.15"/>
  <path class="cls-1" d="M126.92,191.15h.84v3.13c0,1.08-.74,1.87-1.9,1.87s-1.9-.79-1.9-1.87v-3.13h.84v3.03c0,.7.35,1.17,1.05,1.17s1.05-.47,1.05-1.17v-3.03Z"/>
  <path class="cls-1" d="M132.1,195.13v-1.04h-1.12v-.79h1.95v2.23s-.62.62-1.82.62c-1.44,0-2.59-1.09-2.59-2.54s1.11-2.54,2.55-2.54c1.21,0,1.82.74,1.82.74l-.58.56s-.41-.51-1.24-.51c-.99,0-1.69.81-1.69,1.76s.74,1.76,1.73,1.76c.7,0,.99-.24.99-.24"/>
  <path class="cls-1" d="M135.67,192.21l.74,1.92h-1.48l.74-1.92ZM135.25,191.15l-1.91,4.92h.85l.45-1.17h2.08l.45,1.17h.85l-1.91-4.92h-.86Z"/>
  <polygon class="cls-1" points="138.58 191.15 138.58 196.07 141.51 196.07 141.51 195.27 139.42 195.27 139.42 191.15 138.58 191.15"/>
  <path class="cls-1" d="M187.44,110.84c-2.81,0-5.27,1.45-6.69,3.63h-60.37c-1.42-2.18-3.88-3.63-6.69-3.63-4.4,0-7.96,3.55-7.96,7.92s3.56,7.93,7.96,7.93c2.81,0,5.27-1.45,6.69-3.63h60.37c1.42,2.18,3.88,3.63,6.69,3.63,4.4,0,7.96-3.55,7.96-7.93s-3.56-7.92-7.96-7.92"/>
  <path class="cls-1" d="M164.24,128.7c-2.81,0-5.27,1.45-6.69,3.63h-14.53c-1.42-2.18-3.88-3.63-6.69-3.63-4.4,0-7.96,3.55-7.96,7.92s3.56,7.93,7.96,7.93c2.81,0,5.27-1.45,6.69-3.63h14.53c1.42,2.19,3.88,3.63,6.69,3.63,4.4,0,7.96-3.55,7.96-7.93s-3.56-7.92-7.96-7.92"/>
  <path class="cls-1" d="M57.05,19.56c2.81,0,5.27-1.45,6.69-3.63h44.3c1.42,2.18,3.88,3.63,6.69,3.63s5.27-1.45,6.69-3.63h31.2c1.42,2.18,3.88,3.63,6.69,3.63,4.4,0,7.96-3.55,7.96-7.92s-3.56-7.93-7.96-7.93c-2.81,0-5.27,1.45-6.69,3.63h-31.2c-1.42-2.18-3.88-3.63-6.69-3.63s-5.27,1.45-6.69,3.63h-44.3c-1.42-2.18-3.88-3.63-6.69-3.63-4.4,0-7.96,3.55-7.96,7.93s3.56,7.92,7.96,7.92"/>
  <path class="cls-1" d="M39.8,37.42c2.81,0,5.27-1.45,6.69-3.63h32.09c1.42,2.18,3.88,3.63,6.69,3.63s5.27-1.45,6.69-3.63h73.57c1.42,2.18,3.88,3.63,6.69,3.63,4.4,0,7.96-3.55,7.96-7.92s-3.57-7.93-7.96-7.93c-2.81,0-5.27,1.45-6.69,3.63h-73.57c-1.42-2.18-3.88-3.63-6.69-3.63s-5.27,1.45-6.69,3.63h-32.09c-1.42-2.18-3.88-3.63-6.69-3.63-4.4,0-7.96,3.55-7.96,7.93s3.56,7.92,7.96,7.92"/>
  <path class="cls-1" d="M27.3,55.27c2.81,0,5.27-1.45,6.69-3.63h62.56c1.42,2.18,3.88,3.63,6.69,3.63s5.27-1.45,6.69-3.63h21.04c1.42,2.18,3.88,3.63,6.69,3.63s5.27-1.45,6.69-3.63h33.39c1.42,2.18,3.88,3.63,6.69,3.63,4.4,0,7.96-3.55,7.96-7.92s-3.56-7.93-7.96-7.93c-2.81,0-5.27,1.45-6.69,3.63h-33.39c-1.42-2.18-3.88-3.63-6.69-3.63s-5.27,1.45-6.69,3.63h-21.04c-1.42-2.18-3.88-3.63-6.69-3.63s-5.27,1.45-6.69,3.63h-62.56c-1.42-2.18-3.88-3.63-6.69-3.63-4.4,0-7.96,3.55-7.96,7.93s3.56,7.92,7.96,7.92"/>
  <path class="cls-1" d="M203.33,75.13c-2.81,0-5.27,1.45-6.69,3.63h-48.46c-1.42-2.18-3.88-3.63-6.69-3.63s-5.27,1.45-6.69,3.63h-27.71c-1.42-2.18-3.88-3.63-6.69-3.63s-5.27,1.45-6.69,3.63h-44.64c-1.42-2.18-3.88-3.63-6.69-3.63-4.4,0-7.96,3.55-7.96,7.93s3.56,7.92,7.96,7.92c2.81,0,5.27-1.45,6.69-3.63h44.64c1.42,2.18,3.88,3.63,6.69,3.63s5.27-1.45,6.69-3.63h27.71c1.42,2.18,3.88,3.63,6.69,3.63s5.27-1.45,6.69-3.63h48.46c1.42,2.18,3.88,3.63,6.69,3.63,4.4,0,7.96-3.55,7.96-7.92s-3.56-7.93-7.96-7.93"/>
  <path class="cls-1" d="M194.7,92.99c-2.81,0-5.27,1.45-6.69,3.63h-18.13c-1.42-2.18-3.88-3.63-6.69-3.63s-5.27,1.45-6.69,3.63h-26.16c-1.42-2.18-3.88-3.63-6.69-3.63s-5.27,1.45-6.69,3.63h-23.99c-1.42-2.18-3.88-3.63-6.69-3.63-4.4,0-7.96,3.55-7.96,7.92s3.57,7.93,7.96,7.93c2.81,0,5.27-1.45,6.69-3.63h23.99c1.42,2.18,3.88,3.63,6.69,3.63s5.27-1.45,6.69-3.63h26.16c1.42,2.18,3.88,3.63,6.69,3.63s5.27-1.45,6.69-3.63h18.13c1.42,2.18,3.88,3.63,6.69,3.63,4.4,0,7.96-3.55,7.96-7.93s-3.56-7.92-7.96-7.92"/>
  <path class="cls-1" d="M32.21,69.49h20.78c1.42,2.19,3.88,3.63,6.69,3.63s5.27-1.45,6.69-3.63h85.73c1.42,2.19,3.88,3.63,6.69,3.63s5.27-1.45,6.69-3.63h21.77c1.42,2.19,3.88,3.63,6.69,3.63,4.4,0,7.96-3.55,7.96-7.92s-3.56-7.92-7.96-7.92c-2.81,0-5.27,1.45-6.69,3.63h-21.77c-1.42-2.18-3.88-3.63-6.69-3.63s-5.27,1.45-6.69,3.63h-85.73c-1.42-2.18-3.88-3.63-6.69-3.63s-5.27,1.45-6.69,3.63H16.24c-1.42-2.18-3.88-3.63-6.69-3.63-4.4,0-7.96,3.55-7.96,7.92s3.56,7.92,7.96,7.92c2.81,0,5.27-1.45,6.69-3.63h15.97Z"/>
</svg>